<svg xmlns="http://www.w3.org/2000/svg" xmlns:xlink="http://www.w3.org/1999/xlink" width="1920" zoomAndPan="magnify" viewBox="0 0 1440 809.999993" height="1080" preserveAspectRatio="xMidYMid meet" version="1.0"><defs><filter x="0%" y="0%" width="100%" height="100%" id="d091a137b7"><feColorMatrix values="0 0 0 0 1 0 0 0 0 1 0 0 0 0 1 0 0 0 1 0" color-interpolation-filters="sRGB"/></filter><g/><mask id="e312d7cdf5"><g filter="url(#d091a137b7)"><rect x="-144" width="1728" fill="#000000" y="-80.999999" height="971.999992" fill-opacity="0.7765"/></g></mask><clipPath id="94ca9fc96d"><path d="M 0.503906 0.542969 L 366.503906 0.542969 L 366.503906 366.542969 L 0.503906 366.542969 Z M 0.503906 0.542969 " clip-rule="nonzero"/></clipPath><clipPath id="411c4e63c6"><rect x="0" width="368" y="0" height="368"/></clipPath><mask id="5e15cb757e"><g filter="url(#d091a137b7)"><rect x="-144" width="1728" fill="#000000" y="-80.999999" height="971.999992" fill-opacity="0.6471"/></g></mask><clipPath id="53b4872afe"><path d="M 0.964844 0.613281 L 207.214844 0.613281 L 207.214844 206.863281 L 0.964844 206.863281 Z M 0.964844 0.613281 " clip-rule="nonzero"/></clipPath><clipPath id="6083846b07"><rect x="0" width="208" y="0" height="208"/></clipPath><mask id="7043100aee"><g filter="url(#d091a137b7)"><rect x="-144" width="1728" fill="#000000" y="-80.999999" height="971.999992" fill-opacity="0.8392"/></g></mask><clipPath id="9b070960ca"><path d="M 0.519531 0.488281 L 206.769531 0.488281 L 206.769531 206.738281 L 0.519531 206.738281 Z M 0.519531 0.488281 " clip-rule="nonzero"/></clipPath><clipPath id="51bc371978"><rect x="0" width="208" y="0" height="208"/></clipPath><mask id="a3bf394376"><g filter="url(#d091a137b7)"><rect x="-144" width="1728" fill="#000000" y="-80.999999" height="971.999992" fill-opacity="0.9098"/></g></mask><clipPath id="823e6d0773"><path d="M 0.460938 0.488281 L 292.960938 0.488281 L 292.960938 292.988281 L 0.460938 292.988281 Z M 0.460938 0.488281 " clip-rule="nonzero"/></clipPath><clipPath id="704d17075e"><rect x="0" width="294" y="0" height="294"/></clipPath><mask id="5bcbaea51b"><g filter="url(#d091a137b7)"><rect x="-144" width="1728" fill="#000000" y="-80.999999" height="971.999992" fill-opacity="0.8392"/></g></mask><clipPath id="d8147bca18"><path d="M 0.460938 0.789062 L 35.710938 0.789062 L 35.710938 36.039062 L 0.460938 36.039062 Z M 0.460938 0.789062 " clip-rule="nonzero"/></clipPath><clipPath id="47f3b3bb55"><rect x="0" width="36" y="0" height="37"/></clipPath><mask id="c374ee1da1"><g filter="url(#d091a137b7)"><rect x="-144" width="1728" fill="#000000" y="-80.999999" height="971.999992" fill-opacity="0.8392"/></g></mask><clipPath id="6f407e315c"><path d="M 0.394531 0.398438 L 22.144531 0.398438 L 22.144531 22.144531 L 0.394531 22.144531 Z M 0.394531 0.398438 " clip-rule="nonzero"/></clipPath><clipPath id="dc439cb928"><rect x="0" width="23" y="0" height="23"/></clipPath><mask id="6480c37054"><g filter="url(#d091a137b7)"><rect x="-144" width="1728" fill="#000000" y="-80.999999" height="971.999992" fill-opacity="0.8392"/></g></mask><clipPath id="1d5a92c093"><path d="M 0.53125 0.441406 L 35.78125 0.441406 L 35.78125 35.691406 L 0.53125 35.691406 Z M 0.53125 0.441406 " clip-rule="nonzero"/></clipPath><clipPath id="26ca97403b"><rect x="0" width="36" y="0" height="36"/></clipPath><mask id="383a5ef6e5"><g filter="url(#d091a137b7)"><rect x="-144" width="1728" fill="#000000" y="-80.999999" height="971.999992" fill-opacity="0.8392"/></g></mask><clipPath id="4a160d71f0"><path d="M 0.519531 0.992188 L 35.769531 0.992188 L 35.769531 36.242188 L 0.519531 36.242188 Z M 0.519531 0.992188 " clip-rule="nonzero"/></clipPath><clipPath id="1211ee70ac"><rect x="0" width="36" y="0" height="37"/></clipPath><mask id="ed2764fcd5"><g filter="url(#d091a137b7)"><rect x="-144" width="1728" fill="#000000" y="-80.999999" height="971.999992" fill-opacity="0.8392"/></g></mask><clipPath id="31d1859a81"><path d="M 0.472656 0.488281 L 35.722656 0.488281 L 35.722656 35.738281 L 0.472656 35.738281 Z M 0.472656 0.488281 " clip-rule="nonzero"/></clipPath><clipPath id="2a5a2a8233"><rect x="0" width="36" y="0" height="36"/></clipPath><clipPath id="00e5e52914"><path d="M 109.949219 230.554688 L 433.949219 230.554688 L 433.949219 554.554688 L 109.949219 554.554688 Z M 109.949219 230.554688 " clip-rule="nonzero"/></clipPath><clipPath id="b4180dbf80"><path d="M 323.449219 369.613281 L 446.449219 369.613281 L 446.449219 445 L 323.449219 445 Z M 323.449219 369.613281 " clip-rule="nonzero"/></clipPath><clipPath id="ced90c5aad"><path d="M 338 520 L 432 520 L 432 554.863281 L 338 554.863281 Z M 338 520 " clip-rule="nonzero"/></clipPath></defs><rect x="-144" width="1728" fill="#ffffff" y="-80.999999" height="971.999992" fill-opacity="1"/><rect x="-144" width="1728" fill="#ffffff" y="-80.999999" height="971.999992" fill-opacity="1"/><rect x="-144" width="1728" fill="#ffffff" y="-80.999999" height="971.999992" fill-opacity="1"/><g mask="url(#e312d7cdf5)"><g transform="matrix(1, 0, 0, 1, 112, 209)"><g clip-path="url(#411c4e63c6)"><g clip-path="url(#94ca9fc96d)"><path fill="#5271ff" d="M 366.503906 183.542969 C 366.503906 186.539062 366.429688 189.53125 366.285156 192.523438 C 366.136719 195.511719 365.917969 198.5 365.621094 201.480469 C 365.328125 204.460938 364.960938 207.429688 364.523438 210.394531 C 364.082031 213.355469 363.570312 216.304688 362.988281 219.242188 C 362.402344 222.179688 361.746094 225.101562 361.019531 228.007812 C 360.292969 230.914062 359.492188 233.796875 358.625 236.664062 C 357.753906 239.53125 356.816406 242.375 355.804688 245.191406 C 354.796875 248.011719 353.71875 250.804688 352.574219 253.574219 C 351.429688 256.339844 350.214844 259.078125 348.933594 261.785156 C 347.652344 264.492188 346.308594 267.167969 344.894531 269.808594 C 343.484375 272.449219 342.007812 275.054688 340.46875 277.621094 C 338.929688 280.191406 337.328125 282.722656 335.664062 285.210938 C 334 287.703125 332.273438 290.148438 330.492188 292.554688 C 328.707031 294.960938 326.863281 297.320312 324.964844 299.636719 C 323.066406 301.953125 321.109375 304.21875 319.097656 306.4375 C 317.085938 308.65625 315.023438 310.824219 312.90625 312.941406 C 310.785156 315.058594 308.617188 317.125 306.398438 319.136719 C 304.179688 321.148438 301.914062 323.101562 299.597656 325.003906 C 297.28125 326.902344 294.921875 328.746094 292.515625 330.527344 C 290.109375 332.3125 287.664062 334.039062 285.171875 335.699219 C 282.683594 337.363281 280.152344 338.96875 277.585938 340.507812 C 275.015625 342.046875 272.410156 343.523438 269.769531 344.933594 C 267.128906 346.34375 264.453125 347.691406 261.746094 348.972656 C 259.039062 350.253906 256.300781 351.464844 253.535156 352.613281 C 250.769531 353.757812 247.972656 354.835938 245.15625 355.84375 C 242.335938 356.855469 239.492188 357.792969 236.625 358.664062 C 233.761719 359.53125 230.875 360.332031 227.96875 361.058594 C 225.0625 361.785156 222.144531 362.441406 219.207031 363.027344 C 216.269531 363.609375 213.316406 364.121094 210.355469 364.5625 C 207.394531 365 204.421875 365.367188 201.441406 365.660156 C 198.460938 365.953125 195.476562 366.175781 192.484375 366.320312 C 189.492188 366.46875 186.5 366.542969 183.503906 366.542969 C 180.507812 366.542969 177.515625 366.46875 174.523438 366.320312 C 171.535156 366.175781 168.546875 365.953125 165.566406 365.660156 C 162.585938 365.367188 159.613281 365 156.652344 364.5625 C 153.691406 364.121094 150.738281 363.609375 147.800781 363.027344 C 144.863281 362.441406 141.945312 361.785156 139.039062 361.058594 C 136.132812 360.332031 133.246094 359.53125 130.382812 358.664062 C 127.515625 357.792969 124.671875 356.855469 121.851562 355.84375 C 119.035156 354.835938 116.238281 353.757812 113.472656 352.613281 C 110.707031 351.464844 107.96875 350.253906 105.261719 348.972656 C 102.554688 347.691406 99.878906 346.34375 97.238281 344.933594 C 94.597656 343.523438 91.992188 342.046875 89.421875 340.507812 C 86.855469 338.96875 84.324219 337.363281 81.835938 335.699219 C 79.34375 334.039062 76.898438 332.3125 74.492188 330.527344 C 72.085938 328.746094 69.726562 326.902344 67.410156 325.003906 C 65.09375 323.101562 62.828125 321.148438 60.609375 319.136719 C 58.390625 317.125 56.222656 315.058594 54.101562 312.941406 C 51.984375 310.824219 49.921875 308.65625 47.910156 306.4375 C 45.898438 304.21875 43.941406 301.953125 42.042969 299.636719 C 40.144531 297.320312 38.300781 294.960938 36.515625 292.554688 C 34.734375 290.148438 33.007812 287.703125 31.34375 285.210938 C 29.679688 282.722656 28.078125 280.191406 26.539062 277.621094 C 25 275.054688 23.523438 272.449219 22.113281 269.808594 C 20.699219 267.167969 19.355469 264.492188 18.074219 261.785156 C 16.792969 259.078125 15.582031 256.339844 14.433594 253.574219 C 13.289062 250.804688 12.210938 248.011719 11.203125 245.191406 C 10.191406 242.375 9.253906 239.53125 8.382812 236.664062 C 7.515625 233.796875 6.714844 230.914062 5.988281 228.007812 C 5.261719 225.101562 4.605469 222.179688 4.019531 219.242188 C 3.4375 216.304688 2.925781 213.355469 2.484375 210.394531 C 2.046875 207.429688 1.679688 204.460938 1.386719 201.480469 C 1.089844 198.5 0.871094 195.511719 0.722656 192.523438 C 0.578125 189.53125 0.503906 186.539062 0.503906 183.542969 C 0.503906 180.546875 0.578125 177.554688 0.722656 174.5625 C 0.871094 171.570312 1.089844 168.585938 1.386719 165.605469 C 1.679688 162.625 2.046875 159.652344 2.484375 156.691406 C 2.925781 153.726562 3.4375 150.777344 4.019531 147.839844 C 4.605469 144.902344 5.261719 141.980469 5.988281 139.078125 C 6.714844 136.171875 7.515625 133.285156 8.382812 130.421875 C 9.253906 127.554688 10.191406 124.710938 11.203125 121.890625 C 12.210938 119.070312 13.289062 116.277344 14.433594 113.511719 C 15.582031 110.746094 16.792969 108.007812 18.074219 105.300781 C 19.355469 102.59375 20.699219 99.917969 22.113281 97.277344 C 23.523438 94.636719 25 92.03125 26.539062 89.460938 C 28.078125 86.894531 29.679688 84.363281 31.34375 81.871094 C 33.007812 79.382812 34.734375 76.933594 36.515625 74.527344 C 38.300781 72.125 40.144531 69.761719 42.042969 67.449219 C 43.941406 65.132812 45.898438 62.867188 47.910156 60.648438 C 49.921875 58.429688 51.984375 56.257812 54.101562 54.140625 C 56.222656 52.023438 58.390625 49.960938 60.609375 47.949219 C 62.828125 45.9375 65.09375 43.980469 67.410156 42.082031 C 69.726562 40.179688 72.085938 38.339844 74.492188 36.554688 C 76.898438 34.769531 79.34375 33.046875 81.835938 31.382812 C 84.324219 29.71875 86.855469 28.117188 89.421875 26.578125 C 91.992188 25.039062 94.597656 23.5625 97.238281 22.152344 C 99.878906 20.738281 102.554688 19.394531 105.261719 18.113281 C 107.96875 16.832031 110.707031 15.617188 113.472656 14.472656 C 116.238281 13.328125 119.035156 12.25 121.851562 11.238281 C 124.671875 10.230469 127.515625 9.292969 130.382812 8.421875 C 133.246094 7.554688 136.132812 6.753906 139.039062 6.027344 C 141.945312 5.296875 144.863281 4.644531 147.800781 4.058594 C 150.738281 3.472656 153.691406 2.960938 156.652344 2.523438 C 159.613281 2.082031 162.585938 1.71875 165.566406 1.421875 C 168.546875 1.128906 171.535156 0.910156 174.523438 0.761719 C 177.515625 0.617188 180.507812 0.542969 183.503906 0.542969 C 186.5 0.542969 189.492188 0.617188 192.484375 0.761719 C 195.476562 0.910156 198.460938 1.128906 201.441406 1.421875 C 204.421875 1.71875 207.394531 2.082031 210.355469 2.523438 C 213.316406 2.960938 216.269531 3.472656 219.207031 4.058594 C 222.144531 4.644531 225.0625 5.296875 227.96875 6.027344 C 230.875 6.753906 233.761719 7.554688 236.625 8.421875 C 239.492188 9.292969 242.335938 10.230469 245.15625 11.238281 C 247.976562 12.25 250.769531 13.328125 253.535156 14.472656 C 256.300781 15.617188 259.039062 16.832031 261.746094 18.113281 C 264.453125 19.394531 267.128906 20.738281 269.769531 22.152344 C 272.410156 23.5625 275.015625 25.039062 277.585938 26.578125 C 280.152344 28.117188 282.683594 29.71875 285.171875 31.382812 C 287.664062 33.046875 290.109375 34.769531 292.515625 36.554688 C 294.921875 38.339844 297.28125 40.179688 299.597656 42.082031 C 301.914062 43.980469 304.179688 45.9375 306.398438 47.949219 C 308.617188 49.960938 310.785156 52.023438 312.90625 54.140625 C 315.023438 56.257812 317.085938 58.429688 319.097656 60.648438 C 321.109375 62.867188 323.066406 65.132812 324.964844 67.449219 C 326.863281 69.761719 328.707031 72.125 330.492188 74.527344 C 332.273438 76.933594 334 79.382812 335.664062 81.871094 C 337.328125 84.363281 338.929688 86.894531 340.46875 89.460938 C 342.007812 92.03125 343.484375 94.636719 344.894531 97.277344 C 346.308594 99.917969 347.652344 102.59375 348.933594 105.300781 C 350.214844 108.007812 351.429688 110.746094 352.574219 113.511719 C 353.71875 116.277344 354.796875 119.070312 355.804688 121.890625 C 356.816406 124.710938 357.753906 127.554688 358.625 130.421875 C 359.492188 133.285156 360.292969 136.171875 361.019531 139.078125 C 361.746094 141.980469 362.402344 144.902344 362.988281 147.839844 C 363.570312 150.777344 364.082031 153.726562 364.523438 156.691406 C 364.960938 159.652344 365.328125 162.625 365.621094 165.605469 C 365.917969 168.585938 366.136719 171.570312 366.285156 174.5625 C 366.429688 177.554688 366.503906 180.546875 366.503906 183.542969 Z M 366.503906 183.542969 " fill-opacity="1" fill-rule="nonzero"/></g></g></g></g><g mask="url(#5e15cb757e)"><g transform="matrix(1, 0, 0, 1, 281, 369)"><g clip-path="url(#6083846b07)"><g clip-path="url(#53b4872afe)"><path fill="#6121eb" d="M 207.214844 103.738281 C 207.214844 105.425781 207.171875 107.113281 207.089844 108.800781 C 207.003906 110.484375 206.882812 112.167969 206.714844 113.847656 C 206.550781 115.527344 206.34375 117.203125 206.097656 118.871094 C 205.847656 120.539062 205.5625 122.203125 205.230469 123.859375 C 204.902344 125.515625 204.53125 127.160156 204.121094 128.796875 C 203.710938 130.433594 203.261719 132.058594 202.773438 133.675781 C 202.28125 135.289062 201.753906 136.890625 201.183594 138.480469 C 200.617188 140.070312 200.007812 141.644531 199.363281 143.203125 C 198.71875 144.761719 198.035156 146.304688 197.3125 147.832031 C 196.589844 149.355469 195.832031 150.863281 195.035156 152.351562 C 194.242188 153.839844 193.410156 155.308594 192.542969 156.757812 C 191.671875 158.203125 190.769531 159.628906 189.832031 161.03125 C 188.894531 162.4375 187.925781 163.816406 186.917969 165.171875 C 185.914062 166.527344 184.875 167.855469 183.804688 169.160156 C 182.734375 170.464844 181.632812 171.742188 180.5 172.996094 C 179.363281 174.246094 178.203125 175.464844 177.007812 176.660156 C 175.816406 177.855469 174.59375 179.015625 173.34375 180.148438 C 172.09375 181.285156 170.8125 182.386719 169.507812 183.457031 C 168.203125 184.527344 166.875 185.566406 165.519531 186.570312 C 164.164062 187.574219 162.785156 188.546875 161.382812 189.484375 C 159.976562 190.421875 158.550781 191.324219 157.105469 192.191406 C 155.65625 193.0625 154.1875 193.890625 152.699219 194.6875 C 151.210938 195.484375 149.707031 196.242188 148.179688 196.964844 C 146.652344 197.683594 145.113281 198.367188 143.550781 199.015625 C 141.992188 199.660156 140.417969 200.269531 138.828125 200.835938 C 137.242188 201.40625 135.636719 201.933594 134.023438 202.425781 C 132.410156 202.914062 130.78125 203.363281 129.144531 203.773438 C 127.507812 204.183594 125.863281 204.554688 124.207031 204.882812 C 122.550781 205.210938 120.890625 205.5 119.21875 205.75 C 117.550781 205.996094 115.875 206.203125 114.195312 206.367188 C 112.515625 206.535156 110.832031 206.65625 109.148438 206.742188 C 107.460938 206.824219 105.777344 206.863281 104.089844 206.863281 C 102.398438 206.863281 100.714844 206.824219 99.027344 206.742188 C 97.34375 206.65625 95.660156 206.535156 93.980469 206.367188 C 92.300781 206.203125 90.625 205.996094 88.957031 205.75 C 87.285156 205.5 85.625 205.210938 83.96875 204.882812 C 82.3125 204.554688 80.667969 204.183594 79.03125 203.773438 C 77.394531 203.363281 75.765625 202.914062 74.152344 202.425781 C 72.539062 201.933594 70.933594 201.40625 69.347656 200.835938 C 67.757812 200.269531 66.183594 199.660156 64.625 199.015625 C 63.0625 198.367188 61.523438 197.683594 59.996094 196.964844 C 58.46875 196.242188 56.964844 195.484375 55.476562 194.6875 C 53.988281 193.890625 52.519531 193.0625 51.070312 192.191406 C 49.625 191.324219 48.199219 190.421875 46.792969 189.484375 C 45.390625 188.546875 44.011719 187.574219 42.65625 186.570312 C 41.300781 185.566406 39.972656 184.527344 38.667969 183.457031 C 37.363281 182.386719 36.082031 181.285156 34.832031 180.148438 C 33.582031 179.015625 32.359375 177.855469 31.167969 176.660156 C 29.972656 175.464844 28.8125 174.246094 27.675781 172.996094 C 26.542969 171.742188 25.441406 170.464844 24.371094 169.160156 C 23.300781 167.855469 22.261719 166.527344 21.257812 165.171875 C 20.25 163.816406 19.28125 162.4375 18.34375 161.03125 C 17.40625 159.628906 16.503906 158.203125 15.632812 156.757812 C 14.765625 155.308594 13.933594 153.839844 13.140625 152.351562 C 12.34375 150.863281 11.585938 149.355469 10.863281 147.832031 C 10.140625 146.304688 9.457031 144.761719 8.8125 143.203125 C 8.167969 141.644531 7.558594 140.070312 6.992188 138.480469 C 6.421875 136.890625 5.894531 135.289062 5.402344 133.675781 C 4.914062 132.058594 4.464844 130.433594 4.054688 128.796875 C 3.644531 127.160156 3.273438 125.515625 2.945312 123.859375 C 2.613281 122.203125 2.328125 120.539062 2.078125 118.871094 C 1.832031 117.203125 1.625 115.527344 1.460938 113.847656 C 1.292969 112.167969 1.171875 110.484375 1.085938 108.800781 C 1.003906 107.113281 0.964844 105.425781 0.964844 103.738281 C 0.964844 102.050781 1.003906 100.367188 1.085938 98.679688 C 1.171875 96.992188 1.292969 95.3125 1.460938 93.632812 C 1.625 91.953125 1.832031 90.277344 2.078125 88.609375 C 2.328125 86.9375 2.613281 85.277344 2.945312 83.621094 C 3.273438 81.964844 3.644531 80.320312 4.054688 78.683594 C 4.464844 77.046875 4.914062 75.417969 5.402344 73.804688 C 5.894531 72.1875 6.421875 70.585938 6.992188 68.996094 C 7.558594 67.410156 8.167969 65.835938 8.8125 64.277344 C 9.457031 62.714844 10.140625 61.171875 10.863281 59.648438 C 11.585938 58.121094 12.34375 56.617188 13.140625 55.128906 C 13.933594 53.636719 14.765625 52.171875 15.632812 50.722656 C 16.503906 49.273438 17.40625 47.851562 18.34375 46.445312 C 19.28125 45.042969 20.25 43.664062 21.257812 42.308594 C 22.261719 40.953125 23.300781 39.621094 24.371094 38.316406 C 25.441406 37.011719 26.542969 35.734375 27.675781 34.484375 C 28.8125 33.234375 29.972656 32.011719 31.167969 30.820312 C 32.359375 29.625 33.582031 28.460938 34.832031 27.328125 C 36.082031 26.195312 37.363281 25.09375 38.667969 24.023438 C 39.972656 22.953125 41.300781 21.914062 42.65625 20.910156 C 44.011719 19.902344 45.390625 18.933594 46.792969 17.996094 C 48.199219 17.058594 49.625 16.152344 51.070312 15.285156 C 52.519531 14.417969 53.988281 13.585938 55.476562 12.792969 C 56.964844 11.996094 58.46875 11.238281 59.996094 10.515625 C 61.523438 9.792969 63.0625 9.109375 64.625 8.464844 C 66.183594 7.820312 67.757812 7.210938 69.347656 6.644531 C 70.933594 6.074219 72.539062 5.546875 74.152344 5.054688 C 75.765625 4.566406 77.394531 4.117188 79.03125 3.707031 C 80.667969 3.296875 82.3125 2.925781 83.96875 2.597656 C 85.625 2.265625 87.285156 1.980469 88.957031 1.730469 C 90.625 1.484375 92.300781 1.277344 93.980469 1.113281 C 95.660156 0.945312 97.34375 0.820312 99.027344 0.738281 C 100.714844 0.65625 102.398438 0.613281 104.089844 0.613281 C 105.777344 0.613281 107.460938 0.65625 109.148438 0.738281 C 110.832031 0.820312 112.515625 0.945312 114.195312 1.113281 C 115.875 1.277344 117.550781 1.484375 119.21875 1.730469 C 120.890625 1.980469 122.550781 2.265625 124.207031 2.597656 C 125.863281 2.925781 127.507812 3.296875 129.144531 3.707031 C 130.78125 4.117188 132.410156 4.566406 134.023438 5.054688 C 135.636719 5.546875 137.242188 6.074219 138.828125 6.644531 C 140.417969 7.210938 141.992188 7.820312 143.550781 8.464844 C 145.113281 9.109375 146.652344 9.792969 148.179688 10.515625 C 149.707031 11.238281 151.210938 11.996094 152.699219 12.792969 C 154.1875 13.585938 155.65625 14.417969 157.105469 15.285156 C 158.550781 16.152344 159.976562 17.058594 161.382812 17.996094 C 162.785156 18.933594 164.164062 19.902344 165.519531 20.910156 C 166.875 21.914062 168.203125 22.953125 169.507812 24.023438 C 170.8125 25.09375 172.09375 26.195312 173.34375 27.328125 C 174.59375 28.460938 175.816406 29.625 177.007812 30.820312 C 178.203125 32.011719 179.363281 33.234375 180.5 34.484375 C 181.632812 35.734375 182.734375 37.011719 183.804688 38.316406 C 184.875 39.621094 185.914062 40.953125 186.917969 42.308594 C 187.925781 43.664062 188.894531 45.042969 189.832031 46.445312 C 190.769531 47.851562 191.671875 49.273438 192.542969 50.722656 C 193.410156 52.171875 194.242188 53.636719 195.035156 55.128906 C 195.832031 56.617188 196.589844 58.121094 197.3125 59.648438 C 198.035156 61.171875 198.71875 62.714844 199.363281 64.277344 C 200.007812 65.835938 200.617188 67.410156 201.183594 68.996094 C 201.753906 70.585938 202.28125 72.1875 202.773438 73.804688 C 203.261719 75.417969 203.710938 77.046875 204.121094 78.683594 C 204.53125 80.320312 204.902344 81.964844 205.230469 83.621094 C 205.5625 85.277344 205.847656 86.9375 206.097656 88.609375 C 206.34375 90.277344 206.550781 91.953125 206.714844 93.632812 C 206.882812 95.3125 207.003906 96.992188 207.089844 98.679688 C 207.171875 100.367188 207.214844 102.050781 207.214844 103.738281 Z M 207.214844 103.738281 " fill-opacity="1" fill-rule="nonzero"/></g></g></g></g><g mask="url(#7043100aee)"><g transform="matrix(1, 0, 0, 1, 295, 193)"><g clip-path="url(#51bc371978)"><g clip-path="url(#9b070960ca)"><path fill="#ff5757" d="M 206.769531 103.613281 C 206.769531 105.300781 206.726562 106.984375 206.644531 108.671875 C 206.5625 110.359375 206.4375 112.039062 206.273438 113.71875 C 206.105469 115.398438 205.898438 117.074219 205.652344 118.742188 C 205.40625 120.414062 205.117188 122.074219 204.785156 123.730469 C 204.457031 125.386719 204.085938 127.03125 203.675781 128.667969 C 203.269531 130.304688 202.816406 131.933594 202.328125 133.546875 C 201.835938 135.164062 201.308594 136.765625 200.738281 138.355469 C 200.171875 139.941406 199.5625 141.515625 198.917969 143.074219 C 198.273438 144.636719 197.589844 146.179688 196.867188 147.703125 C 196.144531 149.230469 195.386719 150.734375 194.589844 152.226562 C 193.796875 153.714844 192.964844 155.179688 192.097656 156.628906 C 191.230469 158.078125 190.324219 159.5 189.386719 160.90625 C 188.449219 162.308594 187.480469 163.6875 186.472656 165.042969 C 185.46875 166.398438 184.429688 167.730469 183.359375 169.035156 C 182.289062 170.339844 181.1875 171.617188 180.054688 172.867188 C 178.921875 174.117188 177.757812 175.339844 176.5625 176.53125 C 175.371094 177.726562 174.148438 178.890625 172.898438 180.023438 C 171.648438 181.15625 170.371094 182.257812 169.066406 183.328125 C 167.761719 184.398438 166.429688 185.4375 165.074219 186.441406 C 163.71875 187.449219 162.339844 188.417969 160.9375 189.355469 C 159.53125 190.292969 158.109375 191.199219 156.660156 192.066406 C 155.210938 192.933594 153.746094 193.765625 152.257812 194.558594 C 150.765625 195.355469 149.261719 196.113281 147.734375 196.835938 C 146.210938 197.558594 144.667969 198.242188 143.109375 198.886719 C 141.546875 199.53125 139.972656 200.140625 138.386719 200.707031 C 136.796875 201.277344 135.195312 201.804688 133.578125 202.296875 C 131.964844 202.785156 130.335938 203.234375 128.699219 203.644531 C 127.0625 204.054688 125.417969 204.425781 123.761719 204.753906 C 122.105469 205.085938 120.445312 205.371094 118.773438 205.621094 C 117.105469 205.867188 115.429688 206.074219 113.75 206.242188 C 112.070312 206.40625 110.390625 206.53125 108.703125 206.613281 C 107.019531 206.695312 105.332031 206.738281 103.644531 206.738281 C 101.957031 206.738281 100.269531 206.695312 98.582031 206.613281 C 96.898438 206.53125 95.214844 206.40625 93.535156 206.242188 C 91.855469 206.074219 90.179688 205.867188 88.511719 205.621094 C 86.84375 205.371094 85.179688 205.085938 83.523438 204.753906 C 81.871094 204.425781 80.222656 204.054688 78.585938 203.644531 C 76.949219 203.234375 75.324219 202.785156 73.707031 202.296875 C 72.09375 201.804688 70.492188 201.277344 68.902344 200.707031 C 67.3125 200.140625 65.738281 199.53125 64.179688 198.886719 C 62.621094 198.242188 61.078125 197.558594 59.550781 196.835938 C 58.027344 196.113281 56.519531 195.355469 55.03125 194.558594 C 53.542969 193.765625 52.074219 192.933594 50.625 192.066406 C 49.179688 191.199219 47.753906 190.292969 46.351562 189.355469 C 44.945312 188.417969 43.566406 187.449219 42.210938 186.441406 C 40.855469 185.4375 39.527344 184.398438 38.222656 183.328125 C 36.917969 182.257812 35.640625 181.15625 34.390625 180.023438 C 33.136719 178.890625 31.917969 177.726562 30.722656 176.53125 C 29.53125 175.339844 28.367188 174.117188 27.234375 172.867188 C 26.097656 171.617188 24.996094 170.339844 23.925781 169.035156 C 22.855469 167.730469 21.816406 166.398438 20.8125 165.042969 C 19.808594 163.6875 18.835938 162.308594 17.898438 160.90625 C 16.960938 159.5 16.058594 158.078125 15.191406 156.628906 C 14.324219 155.179688 13.492188 153.714844 12.695312 152.226562 C 11.898438 150.734375 11.140625 149.230469 10.417969 147.703125 C 9.699219 146.179688 9.015625 144.636719 8.367188 143.074219 C 7.722656 141.515625 7.113281 139.941406 6.546875 138.355469 C 5.976562 136.765625 5.449219 135.164062 4.957031 133.546875 C 4.46875 131.933594 4.019531 130.304688 3.609375 128.667969 C 3.199219 127.03125 2.828125 125.386719 2.5 123.730469 C 2.171875 122.074219 1.882812 120.414062 1.632812 118.742188 C 1.386719 117.074219 1.179688 115.398438 1.015625 113.71875 C 0.847656 112.039062 0.726562 110.359375 0.640625 108.671875 C 0.558594 106.984375 0.519531 105.300781 0.519531 103.613281 C 0.519531 101.925781 0.558594 100.238281 0.640625 98.550781 C 0.726562 96.867188 0.847656 95.183594 1.015625 93.503906 C 1.179688 91.824219 1.386719 90.148438 1.632812 88.480469 C 1.882812 86.8125 2.171875 85.148438 2.5 83.492188 C 2.828125 81.839844 3.199219 80.191406 3.609375 78.554688 C 4.019531 76.917969 4.46875 75.292969 4.957031 73.675781 C 5.449219 72.0625 5.976562 70.460938 6.546875 68.871094 C 7.113281 67.28125 7.722656 65.707031 8.367188 64.148438 C 9.015625 62.589844 9.699219 61.046875 10.417969 59.519531 C 11.140625 57.996094 11.898438 56.488281 12.695312 55 C 13.492188 53.511719 14.324219 52.042969 15.191406 50.59375 C 16.058594 49.148438 16.960938 47.722656 17.898438 46.320312 C 18.835938 44.914062 19.808594 43.535156 20.8125 42.179688 C 21.816406 40.824219 22.855469 39.496094 23.925781 38.191406 C 24.996094 36.886719 26.097656 35.609375 27.234375 34.355469 C 28.367188 33.105469 29.53125 31.886719 30.722656 30.691406 C 31.917969 29.5 33.136719 28.335938 34.390625 27.203125 C 35.640625 26.066406 36.917969 24.964844 38.222656 23.894531 C 39.527344 22.824219 40.855469 21.785156 42.210938 20.78125 C 43.566406 19.777344 44.945312 18.804688 46.351562 17.867188 C 47.753906 16.929688 49.179688 16.027344 50.625 15.160156 C 52.074219 14.289062 53.542969 13.460938 55.03125 12.664062 C 56.519531 11.867188 58.027344 11.109375 59.550781 10.386719 C 61.078125 9.667969 62.621094 8.984375 64.179688 8.335938 C 65.738281 7.691406 67.3125 7.082031 68.902344 6.515625 C 70.492188 5.945312 72.09375 5.417969 73.707031 4.925781 C 75.324219 4.4375 76.949219 3.988281 78.585938 3.578125 C 80.222656 3.167969 81.871094 2.796875 83.523438 2.46875 C 85.179688 2.140625 86.84375 1.851562 88.511719 1.601562 C 90.179688 1.355469 91.855469 1.148438 93.535156 0.984375 C 95.214844 0.816406 96.898438 0.695312 98.582031 0.609375 C 100.269531 0.527344 101.957031 0.488281 103.644531 0.488281 C 105.332031 0.488281 107.019531 0.527344 108.703125 0.609375 C 110.390625 0.695312 112.070312 0.816406 113.75 0.984375 C 115.429688 1.148438 117.105469 1.355469 118.773438 1.601562 C 120.445312 1.851562 122.105469 2.140625 123.761719 2.46875 C 125.417969 2.796875 127.0625 3.167969 128.699219 3.578125 C 130.335938 3.988281 131.964844 4.4375 133.578125 4.925781 C 135.195312 5.417969 136.796875 5.945312 138.386719 6.515625 C 139.972656 7.082031 141.546875 7.691406 143.109375 8.335938 C 144.667969 8.984375 146.210938 9.667969 147.734375 10.386719 C 149.261719 11.109375 150.769531 11.867188 152.257812 12.664062 C 153.746094 13.460938 155.210938 14.289062 156.660156 15.160156 C 158.109375 16.027344 159.53125 16.929688 160.9375 17.867188 C 162.339844 18.804688 163.71875 19.777344 165.074219 20.78125 C 166.429688 21.785156 167.761719 22.824219 169.066406 23.894531 C 170.371094 24.964844 171.648438 26.066406 172.898438 27.203125 C 174.148438 28.335938 175.371094 29.5 176.5625 30.691406 C 177.757812 31.886719 178.921875 33.105469 180.054688 34.355469 C 181.1875 35.609375 182.289062 36.886719 183.359375 38.191406 C 184.429688 39.496094 185.46875 40.824219 186.472656 42.179688 C 187.480469 43.535156 188.449219 44.914062 189.386719 46.320312 C 190.324219 47.722656 191.230469 49.148438 192.097656 50.59375 C 192.964844 52.042969 193.796875 53.511719 194.589844 55 C 195.386719 56.488281 196.144531 57.996094 196.867188 59.519531 C 197.589844 61.046875 198.273438 62.589844 198.917969 64.148438 C 199.5625 65.707031 200.171875 67.28125 200.738281 68.871094 C 201.308594 70.460938 201.835938 72.0625 202.328125 73.675781 C 202.816406 75.292969 203.269531 76.917969 203.675781 78.554688 C 204.085938 80.191406 204.457031 81.839844 204.785156 83.492188 C 205.117188 85.148438 205.40625 86.8125 205.652344 88.480469 C 205.898438 90.148438 206.105469 91.824219 206.273438 93.503906 C 206.4375 95.183594 206.5625 96.867188 206.644531 98.550781 C 206.726562 100.238281 206.769531 101.925781 206.769531 103.613281 Z M 206.769531 103.613281 " fill-opacity="1" fill-rule="nonzero"/></g></g></g></g><g mask="url(#a3bf394376)"><g transform="matrix(1, 0, 0, 1, 92, 193)"><g clip-path="url(#704d17075e)"><g clip-path="url(#823e6d0773)"><path fill="#7ed957" d="M 292.960938 146.738281 C 292.960938 149.128906 292.902344 151.523438 292.785156 153.914062 C 292.667969 156.304688 292.492188 158.691406 292.257812 161.070312 C 292.023438 163.453125 291.730469 165.828125 291.378906 168.195312 C 291.027344 170.5625 290.617188 172.921875 290.152344 175.269531 C 289.683594 177.617188 289.160156 179.949219 288.578125 182.273438 C 287.996094 184.59375 287.359375 186.902344 286.664062 189.191406 C 285.96875 191.480469 285.21875 193.753906 284.414062 196.007812 C 283.605469 198.261719 282.746094 200.492188 281.828125 202.703125 C 280.914062 204.914062 279.945312 207.101562 278.921875 209.265625 C 277.898438 211.429688 276.820312 213.566406 275.691406 215.679688 C 274.566406 217.789062 273.386719 219.871094 272.15625 221.925781 C 270.925781 223.976562 269.644531 226 268.316406 227.988281 C 266.984375 229.980469 265.605469 231.933594 264.179688 233.859375 C 262.753906 235.78125 261.285156 237.667969 259.765625 239.515625 C 258.246094 241.367188 256.683594 243.179688 255.078125 244.953125 C 253.46875 246.726562 251.820312 248.457031 250.125 250.152344 C 248.433594 251.84375 246.703125 253.492188 244.929688 255.101562 C 243.15625 256.707031 241.34375 258.269531 239.492188 259.789062 C 237.640625 261.308594 235.753906 262.78125 233.832031 264.207031 C 231.910156 265.632812 229.953125 267.007812 227.964844 268.339844 C 225.972656 269.667969 223.953125 270.949219 221.898438 272.179688 C 219.847656 273.410156 217.765625 274.589844 215.652344 275.71875 C 213.542969 276.847656 211.40625 277.921875 209.242188 278.945312 C 207.078125 279.96875 204.890625 280.9375 202.679688 281.855469 C 200.46875 282.769531 198.234375 283.632812 195.980469 284.4375 C 193.730469 285.242188 191.457031 285.996094 189.167969 286.6875 C 186.875 287.382812 184.570312 288.023438 182.25 288.605469 C 179.925781 289.183594 177.589844 289.710938 175.246094 290.175781 C 172.898438 290.644531 170.539062 291.050781 168.171875 291.402344 C 165.804688 291.753906 163.429688 292.046875 161.046875 292.28125 C 158.664062 292.515625 156.277344 292.691406 153.886719 292.8125 C 151.496094 292.929688 149.105469 292.988281 146.710938 292.988281 C 144.320312 292.988281 141.925781 292.929688 139.535156 292.8125 C 137.144531 292.691406 134.757812 292.515625 132.378906 292.28125 C 129.996094 292.046875 127.621094 291.753906 125.253906 291.402344 C 122.886719 291.050781 120.527344 290.644531 118.179688 290.175781 C 115.832031 289.710938 113.5 289.183594 111.175781 288.605469 C 108.855469 288.023438 106.546875 287.382812 104.257812 286.6875 C 101.96875 285.996094 99.695312 285.242188 97.441406 284.4375 C 95.1875 283.632812 92.957031 282.769531 90.746094 281.855469 C 88.535156 280.9375 86.347656 279.96875 84.183594 278.945312 C 82.019531 277.921875 79.882812 276.847656 77.769531 275.71875 C 75.660156 274.589844 73.578125 273.410156 71.523438 272.179688 C 69.472656 270.949219 67.449219 269.667969 65.460938 268.339844 C 63.46875 267.007812 61.515625 265.632812 59.589844 264.207031 C 57.667969 262.78125 55.78125 261.308594 53.933594 259.789062 C 52.082031 258.269531 50.269531 256.707031 48.496094 255.101562 C 46.722656 253.492188 44.992188 251.84375 43.296875 250.152344 C 41.605469 248.457031 39.957031 246.726562 38.347656 244.953125 C 36.742188 243.179688 35.179688 241.367188 33.660156 239.515625 C 32.140625 237.667969 30.667969 235.78125 29.242188 233.859375 C 27.816406 231.933594 26.441406 229.980469 25.109375 227.988281 C 23.78125 226 22.5 223.976562 21.269531 221.925781 C 20.039062 219.871094 18.859375 217.789062 17.730469 215.679688 C 16.601562 213.566406 15.527344 211.429688 14.503906 209.265625 C 13.480469 207.101562 12.511719 204.914062 11.59375 202.703125 C 10.679688 200.492188 9.816406 198.261719 9.011719 196.007812 C 8.207031 193.753906 7.453125 191.480469 6.761719 189.191406 C 6.066406 186.902344 5.425781 184.59375 4.84375 182.273438 C 4.261719 179.949219 3.738281 177.617188 3.273438 175.269531 C 2.804688 172.921875 2.394531 170.5625 2.046875 168.195312 C 1.695312 165.828125 1.402344 163.453125 1.167969 161.070312 C 0.933594 158.691406 0.757812 156.304688 0.636719 153.914062 C 0.519531 151.523438 0.460938 149.128906 0.460938 146.738281 C 0.460938 144.34375 0.519531 141.953125 0.636719 139.5625 C 0.757812 137.171875 0.933594 134.785156 1.167969 132.402344 C 1.402344 130.019531 1.695312 127.644531 2.046875 125.277344 C 2.394531 122.910156 2.804688 120.550781 3.273438 118.203125 C 3.738281 115.859375 4.265625 113.523438 4.84375 111.199219 C 5.425781 108.878906 6.066406 106.574219 6.761719 104.28125 C 7.453125 101.992188 8.207031 99.71875 9.011719 97.464844 C 9.816406 95.214844 10.679688 92.980469 11.59375 90.769531 C 12.511719 88.558594 13.480469 86.371094 14.503906 84.207031 C 15.527344 82.042969 16.601562 79.90625 17.730469 77.796875 C 18.859375 75.683594 20.039062 73.601562 21.269531 71.550781 C 22.5 69.496094 23.78125 67.476562 25.109375 65.484375 C 26.441406 63.496094 27.816406 61.539062 29.242188 59.617188 C 30.667969 57.695312 32.140625 55.808594 33.660156 53.957031 C 35.179688 52.105469 36.742188 50.292969 38.347656 48.519531 C 39.957031 46.746094 41.605469 45.015625 43.296875 43.324219 C 44.992188 41.628906 46.722656 39.980469 48.496094 38.371094 C 50.269531 36.765625 52.082031 35.203125 53.933594 33.683594 C 55.78125 32.164062 57.667969 30.695312 59.589844 29.269531 C 61.515625 27.84375 63.46875 26.464844 65.460938 25.132812 C 67.449219 23.804688 69.472656 22.523438 71.523438 21.292969 C 73.578125 20.0625 75.660156 18.882812 77.769531 17.757812 C 79.882812 16.628906 82.019531 15.550781 84.183594 14.527344 C 86.347656 13.503906 88.535156 12.535156 90.746094 11.621094 C 92.957031 10.703125 95.1875 9.84375 97.441406 9.035156 C 99.695312 8.230469 101.96875 7.480469 104.257812 6.785156 C 106.546875 6.089844 108.855469 5.453125 111.175781 4.871094 C 113.5 4.289062 115.832031 3.765625 118.179688 3.296875 C 120.527344 2.832031 122.886719 2.421875 125.253906 2.070312 C 127.621094 1.71875 129.996094 1.425781 132.378906 1.191406 C 134.757812 0.957031 137.144531 0.78125 139.535156 0.664062 C 141.925781 0.546875 144.320312 0.488281 146.710938 0.488281 C 149.105469 0.488281 151.496094 0.546875 153.886719 0.664062 C 156.277344 0.78125 158.664062 0.957031 161.046875 1.191406 C 163.429688 1.425781 165.804688 1.71875 168.171875 2.070312 C 170.539062 2.421875 172.898438 2.832031 175.246094 3.296875 C 177.589844 3.765625 179.925781 4.289062 182.25 4.871094 C 184.570312 5.453125 186.875 6.089844 189.167969 6.785156 C 191.457031 7.480469 193.730469 8.230469 195.980469 9.035156 C 198.234375 9.84375 200.46875 10.703125 202.679688 11.621094 C 204.890625 12.535156 207.078125 13.503906 209.242188 14.527344 C 211.40625 15.550781 213.542969 16.628906 215.652344 17.757812 C 217.765625 18.882812 219.847656 20.0625 221.898438 21.292969 C 223.953125 22.523438 225.972656 23.804688 227.964844 25.132812 C 229.953125 26.464844 231.910156 27.84375 233.832031 29.269531 C 235.753906 30.695312 237.640625 32.164062 239.492188 33.683594 C 241.34375 35.203125 243.15625 36.765625 244.929688 38.371094 C 246.703125 39.980469 248.433594 41.628906 250.125 43.324219 C 251.820312 45.015625 253.46875 46.746094 255.078125 48.519531 C 256.683594 50.292969 258.246094 52.105469 259.765625 53.957031 C 261.285156 55.808594 262.753906 57.695312 264.179688 59.617188 C 265.605469 61.539062 266.984375 63.496094 268.316406 65.484375 C 269.644531 67.476562 270.925781 69.496094 272.15625 71.550781 C 273.386719 73.601562 274.566406 75.683594 275.691406 77.796875 C 276.820312 79.90625 277.898438 82.042969 278.921875 84.207031 C 279.945312 86.371094 280.914062 88.558594 281.828125 90.769531 C 282.746094 92.980469 283.605469 95.214844 284.414062 97.464844 C 285.21875 99.71875 285.96875 101.992188 286.664062 104.28125 C 287.359375 106.574219 287.996094 108.878906 288.578125 111.199219 C 289.160156 113.523438 289.683594 115.859375 290.152344 118.203125 C 290.617188 120.550781 291.027344 122.910156 291.378906 125.277344 C 291.730469 127.644531 292.023438 130.019531 292.257812 132.402344 C 292.492188 134.785156 292.667969 137.171875 292.785156 139.5625 C 292.902344 141.953125 292.960938 144.34375 292.960938 146.738281 Z M 292.960938 146.738281 " fill-opacity="1" fill-rule="nonzero"/></g></g></g></g><g mask="url(#5bcbaea51b)"><g transform="matrix(1, 0, 0, 1, 92, 518)"><g clip-path="url(#47f3b3bb55)"><g clip-path="url(#d8147bca18)"><path fill="#ffde59" d="M 35.710938 18.414062 C 35.710938 18.992188 35.683594 19.570312 35.628906 20.144531 C 35.570312 20.71875 35.484375 21.289062 35.375 21.855469 C 35.261719 22.421875 35.121094 22.980469 34.953125 23.53125 C 34.785156 24.085938 34.589844 24.628906 34.371094 25.160156 C 34.148438 25.695312 33.902344 26.214844 33.632812 26.722656 C 33.359375 27.234375 33.0625 27.726562 32.742188 28.207031 C 32.421875 28.6875 32.078125 29.152344 31.710938 29.597656 C 31.34375 30.042969 30.957031 30.46875 30.550781 30.878906 C 30.140625 31.285156 29.714844 31.671875 29.269531 32.039062 C 28.824219 32.40625 28.359375 32.75 27.878906 33.070312 C 27.398438 33.390625 26.90625 33.6875 26.394531 33.960938 C 25.886719 34.230469 25.367188 34.476562 24.832031 34.699219 C 24.296875 34.917969 23.757812 35.113281 23.203125 35.28125 C 22.652344 35.449219 22.09375 35.589844 21.527344 35.703125 C 20.960938 35.816406 20.390625 35.898438 19.816406 35.957031 C 19.242188 36.011719 18.664062 36.039062 18.085938 36.039062 C 17.511719 36.039062 16.933594 36.011719 16.359375 35.957031 C 15.785156 35.898438 15.214844 35.816406 14.648438 35.703125 C 14.082031 35.589844 13.523438 35.449219 12.972656 35.28125 C 12.417969 35.113281 11.875 34.917969 11.34375 34.699219 C 10.808594 34.476562 10.289062 34.230469 9.777344 33.960938 C 9.269531 33.6875 8.773438 33.390625 8.296875 33.070312 C 7.816406 32.75 7.351562 32.40625 6.90625 32.039062 C 6.460938 31.671875 6.03125 31.285156 5.625 30.878906 C 5.214844 30.46875 4.828125 30.042969 4.464844 29.597656 C 4.097656 29.152344 3.753906 28.6875 3.433594 28.207031 C 3.113281 27.726562 2.816406 27.234375 2.542969 26.722656 C 2.269531 26.214844 2.023438 25.695312 1.804688 25.160156 C 1.582031 24.628906 1.390625 24.085938 1.222656 23.53125 C 1.054688 22.980469 0.914062 22.421875 0.800781 21.855469 C 0.6875 21.289062 0.605469 20.71875 0.546875 20.144531 C 0.492188 19.570312 0.460938 18.992188 0.460938 18.414062 C 0.460938 17.839844 0.492188 17.261719 0.546875 16.6875 C 0.605469 16.113281 0.6875 15.542969 0.800781 14.976562 C 0.914062 14.410156 1.054688 13.851562 1.222656 13.300781 C 1.390625 12.746094 1.582031 12.203125 1.804688 11.671875 C 2.023438 11.136719 2.269531 10.617188 2.542969 10.105469 C 2.816406 9.597656 3.113281 9.105469 3.433594 8.625 C 3.753906 8.144531 4.097656 7.679688 4.464844 7.234375 C 4.828125 6.789062 5.214844 6.359375 5.625 5.953125 C 6.03125 5.542969 6.460938 5.15625 6.90625 4.792969 C 7.351562 4.425781 7.816406 4.082031 8.296875 3.761719 C 8.773438 3.441406 9.269531 3.144531 9.777344 2.871094 C 10.289062 2.597656 10.808594 2.351562 11.34375 2.132812 C 11.875 1.910156 12.417969 1.71875 12.972656 1.550781 C 13.523438 1.382812 14.082031 1.242188 14.648438 1.128906 C 15.214844 1.015625 15.785156 0.933594 16.359375 0.875 C 16.933594 0.820312 17.511719 0.789062 18.085938 0.789062 C 18.664062 0.789062 19.242188 0.820312 19.816406 0.875 C 20.390625 0.933594 20.960938 1.015625 21.527344 1.128906 C 22.09375 1.242188 22.652344 1.382812 23.203125 1.550781 C 23.757812 1.71875 24.296875 1.910156 24.832031 2.132812 C 25.367188 2.351562 25.886719 2.597656 26.394531 2.871094 C 26.90625 3.144531 27.398438 3.441406 27.878906 3.761719 C 28.359375 4.082031 28.824219 4.425781 29.269531 4.792969 C 29.714844 5.15625 30.140625 5.542969 30.550781 5.953125 C 30.957031 6.359375 31.34375 6.789062 31.710938 7.234375 C 32.078125 7.679688 32.421875 8.144531 32.742188 8.625 C 33.0625 9.105469 33.359375 9.597656 33.632812 10.105469 C 33.902344 10.617188 34.148438 11.136719 34.371094 11.671875 C 34.589844 12.203125 34.785156 12.746094 34.953125 13.300781 C 35.121094 13.851562 35.261719 14.410156 35.375 14.976562 C 35.484375 15.542969 35.570312 16.113281 35.628906 16.6875 C 35.683594 17.261719 35.710938 17.839844 35.710938 18.414062 Z M 35.710938 18.414062 " fill-opacity="1" fill-rule="nonzero"/></g></g></g></g><g mask="url(#c374ee1da1)"><g transform="matrix(1, 0, 0, 1, 59, 383)"><g clip-path="url(#dc439cb928)"><g clip-path="url(#6f407e315c)"><path fill="#5271ff" d="M 22.144531 11.269531 C 22.144531 11.984375 22.078125 12.691406 21.9375 13.394531 C 21.796875 14.09375 21.59375 14.773438 21.320312 15.433594 C 21.046875 16.09375 20.710938 16.71875 20.3125 17.3125 C 19.917969 17.90625 19.464844 18.457031 18.960938 18.960938 C 18.457031 19.464844 17.90625 19.917969 17.3125 20.3125 C 16.71875 20.710938 16.09375 21.046875 15.433594 21.320312 C 14.773438 21.59375 14.09375 21.796875 13.394531 21.9375 C 12.691406 22.078125 11.984375 22.144531 11.269531 22.144531 C 10.558594 22.144531 9.851562 22.078125 9.148438 21.9375 C 8.449219 21.796875 7.769531 21.59375 7.109375 21.320312 C 6.449219 21.046875 5.824219 20.710938 5.230469 20.3125 C 4.636719 19.917969 4.085938 19.464844 3.582031 18.960938 C 3.078125 18.457031 2.625 17.90625 2.230469 17.3125 C 1.832031 16.71875 1.496094 16.09375 1.222656 15.433594 C 0.949219 14.773438 0.746094 14.09375 0.605469 13.394531 C 0.464844 12.691406 0.394531 11.984375 0.394531 11.269531 C 0.394531 10.558594 0.464844 9.851562 0.605469 9.148438 C 0.746094 8.449219 0.949219 7.769531 1.222656 7.109375 C 1.496094 6.449219 1.832031 5.824219 2.230469 5.230469 C 2.625 4.636719 3.078125 4.085938 3.582031 3.582031 C 4.085938 3.078125 4.636719 2.625 5.230469 2.230469 C 5.824219 1.832031 6.449219 1.496094 7.109375 1.222656 C 7.769531 0.949219 8.449219 0.746094 9.148438 0.605469 C 9.851562 0.464844 10.558594 0.398438 11.269531 0.398438 C 11.984375 0.398438 12.691406 0.464844 13.394531 0.605469 C 14.09375 0.746094 14.773438 0.949219 15.433594 1.222656 C 16.09375 1.496094 16.71875 1.832031 17.3125 2.230469 C 17.90625 2.625 18.457031 3.078125 18.960938 3.582031 C 19.464844 4.085938 19.917969 4.636719 20.3125 5.230469 C 20.710938 5.824219 21.046875 6.449219 21.320312 7.109375 C 21.59375 7.769531 21.796875 8.449219 21.9375 9.148438 C 22.078125 9.851562 22.144531 10.558594 22.144531 11.269531 Z M 22.144531 11.269531 " fill-opacity="1" fill-rule="nonzero"/></g></g></g></g><g mask="url(#6480c37054)"><g transform="matrix(1, 0, 0, 1, 478, 399)"><g clip-path="url(#26ca97403b)"><g clip-path="url(#1d5a92c093)"><path fill="#ff5757" d="M 35.78125 18.066406 C 35.78125 18.644531 35.753906 19.222656 35.699219 19.796875 C 35.640625 20.371094 35.554688 20.941406 35.445312 21.507812 C 35.332031 22.074219 35.191406 22.632812 35.023438 23.183594 C 34.855469 23.738281 34.660156 24.28125 34.441406 24.8125 C 34.21875 25.347656 33.972656 25.867188 33.703125 26.375 C 33.429688 26.886719 33.132812 27.378906 32.8125 27.859375 C 32.492188 28.339844 32.148438 28.804688 31.78125 29.25 C 31.414062 29.695312 31.027344 30.121094 30.621094 30.53125 C 30.210938 30.9375 29.785156 31.324219 29.339844 31.691406 C 28.890625 32.058594 28.429688 32.402344 27.949219 32.722656 C 27.46875 33.042969 26.976562 33.339844 26.464844 33.613281 C 25.957031 33.882812 25.4375 34.128906 24.902344 34.351562 C 24.367188 34.570312 23.824219 34.765625 23.273438 34.933594 C 22.722656 35.101562 22.160156 35.242188 21.597656 35.355469 C 21.03125 35.46875 20.460938 35.550781 19.886719 35.609375 C 19.3125 35.664062 18.734375 35.691406 18.15625 35.691406 C 17.582031 35.691406 17.003906 35.664062 16.429688 35.609375 C 15.855469 35.550781 15.285156 35.46875 14.71875 35.355469 C 14.152344 35.242188 13.59375 35.101562 13.042969 34.933594 C 12.488281 34.765625 11.945312 34.570312 11.414062 34.351562 C 10.878906 34.128906 10.359375 33.882812 9.847656 33.613281 C 9.339844 33.339844 8.84375 33.042969 8.367188 32.722656 C 7.886719 32.402344 7.421875 32.058594 6.976562 31.691406 C 6.53125 31.324219 6.101562 30.9375 5.695312 30.53125 C 5.285156 30.121094 4.898438 29.695312 4.53125 29.25 C 4.167969 28.804688 3.824219 28.339844 3.503906 27.859375 C 3.183594 27.378906 2.886719 26.886719 2.613281 26.375 C 2.339844 25.867188 2.09375 25.347656 1.875 24.8125 C 1.652344 24.28125 1.457031 23.738281 1.292969 23.183594 C 1.125 22.632812 0.984375 22.074219 0.871094 21.507812 C 0.757812 20.941406 0.675781 20.371094 0.617188 19.796875 C 0.5625 19.222656 0.53125 18.644531 0.53125 18.066406 C 0.53125 17.492188 0.5625 16.914062 0.617188 16.339844 C 0.675781 15.765625 0.757812 15.195312 0.871094 14.628906 C 0.984375 14.0625 1.125 13.503906 1.292969 12.953125 C 1.457031 12.398438 1.652344 11.855469 1.875 11.324219 C 2.09375 10.789062 2.339844 10.269531 2.613281 9.757812 C 2.886719 9.25 3.183594 8.757812 3.503906 8.277344 C 3.824219 7.796875 4.167969 7.332031 4.53125 6.886719 C 4.898438 6.441406 5.285156 6.011719 5.695312 5.605469 C 6.101562 5.195312 6.53125 4.808594 6.976562 4.445312 C 7.421875 4.078125 7.886719 3.734375 8.367188 3.414062 C 8.84375 3.09375 9.339844 2.796875 9.847656 2.523438 C 10.359375 2.25 10.878906 2.003906 11.414062 1.785156 C 11.945312 1.5625 12.488281 1.371094 13.042969 1.203125 C 13.59375 1.035156 14.152344 0.894531 14.71875 0.78125 C 15.285156 0.667969 15.855469 0.585938 16.429688 0.527344 C 17.003906 0.472656 17.582031 0.441406 18.15625 0.441406 C 18.734375 0.441406 19.3125 0.472656 19.886719 0.527344 C 20.460938 0.585938 21.03125 0.667969 21.597656 0.78125 C 22.160156 0.894531 22.722656 1.035156 23.273438 1.203125 C 23.824219 1.371094 24.367188 1.5625 24.902344 1.785156 C 25.4375 2.003906 25.957031 2.25 26.464844 2.523438 C 26.976562 2.796875 27.46875 3.09375 27.949219 3.414062 C 28.429688 3.734375 28.890625 4.078125 29.339844 4.445312 C 29.785156 4.808594 30.210938 5.195312 30.621094 5.605469 C 31.027344 6.011719 31.414062 6.441406 31.78125 6.886719 C 32.148438 7.332031 32.492188 7.796875 32.8125 8.277344 C 33.132812 8.757812 33.429688 9.25 33.703125 9.757812 C 33.972656 10.269531 34.21875 10.789062 34.441406 11.324219 C 34.660156 11.855469 34.855469 12.398438 35.023438 12.953125 C 35.191406 13.503906 35.332031 14.0625 35.445312 14.628906 C 35.554688 15.195312 35.640625 15.765625 35.699219 16.339844 C 35.753906 16.914062 35.78125 17.492188 35.78125 18.066406 Z M 35.78125 18.066406 " fill-opacity="1" fill-rule="nonzero"/></g></g></g></g><g mask="url(#383a5ef6e5)"><g transform="matrix(1, 0, 0, 1, 295, 139)"><g clip-path="url(#1211ee70ac)"><g clip-path="url(#4a160d71f0)"><path fill="#ff5757" d="M 35.769531 18.617188 C 35.769531 19.195312 35.738281 19.773438 35.683594 20.347656 C 35.625 20.921875 35.542969 21.492188 35.429688 22.058594 C 35.316406 22.625 35.175781 23.183594 35.007812 23.734375 C 34.839844 24.289062 34.648438 24.832031 34.425781 25.363281 C 34.207031 25.898438 33.960938 26.417969 33.6875 26.925781 C 33.414062 27.4375 33.117188 27.929688 32.796875 28.410156 C 32.476562 28.890625 32.132812 29.355469 31.765625 29.800781 C 31.402344 30.246094 31.015625 30.671875 30.605469 31.082031 C 30.199219 31.488281 29.769531 31.875 29.324219 32.242188 C 28.878906 32.609375 28.414062 32.953125 27.933594 33.273438 C 27.457031 33.59375 26.960938 33.890625 26.453125 34.164062 C 25.941406 34.433594 25.421875 34.679688 24.886719 34.902344 C 24.355469 35.121094 23.8125 35.316406 23.257812 35.484375 C 22.707031 35.652344 22.148438 35.792969 21.582031 35.90625 C 21.015625 36.019531 20.445312 36.101562 19.871094 36.160156 C 19.296875 36.214844 18.71875 36.242188 18.144531 36.242188 C 17.566406 36.242188 16.988281 36.214844 16.414062 36.160156 C 15.839844 36.101562 15.269531 36.019531 14.703125 35.90625 C 14.136719 35.792969 13.578125 35.652344 13.027344 35.484375 C 12.472656 35.316406 11.933594 35.121094 11.398438 34.902344 C 10.863281 34.679688 10.34375 34.433594 9.835938 34.164062 C 9.324219 33.890625 8.832031 33.59375 8.351562 33.273438 C 7.871094 32.953125 7.410156 32.609375 6.960938 32.242188 C 6.515625 31.875 6.089844 31.488281 5.679688 31.082031 C 5.273438 30.671875 4.886719 30.246094 4.519531 29.800781 C 4.152344 29.355469 3.808594 28.890625 3.488281 28.410156 C 3.167969 27.929688 2.871094 27.4375 2.597656 26.925781 C 2.328125 26.417969 2.082031 25.898438 1.859375 25.363281 C 1.640625 24.832031 1.445312 24.289062 1.277344 23.734375 C 1.109375 23.183594 0.96875 22.625 0.855469 22.058594 C 0.746094 21.492188 0.660156 20.921875 0.601562 20.347656 C 0.546875 19.773438 0.519531 19.195312 0.519531 18.617188 C 0.519531 18.042969 0.546875 17.464844 0.601562 16.890625 C 0.660156 16.316406 0.746094 15.746094 0.855469 15.179688 C 0.96875 14.613281 1.109375 14.054688 1.277344 13.503906 C 1.445312 12.949219 1.640625 12.40625 1.859375 11.875 C 2.082031 11.339844 2.328125 10.820312 2.597656 10.308594 C 2.871094 9.800781 3.167969 9.308594 3.488281 8.828125 C 3.808594 8.347656 4.152344 7.882812 4.519531 7.4375 C 4.886719 6.992188 5.273438 6.5625 5.679688 6.15625 C 6.089844 5.746094 6.515625 5.359375 6.960938 4.996094 C 7.410156 4.628906 7.871094 4.285156 8.351562 3.964844 C 8.832031 3.644531 9.324219 3.347656 9.835938 3.074219 C 10.34375 2.800781 10.863281 2.554688 11.398438 2.335938 C 11.933594 2.113281 12.472656 1.921875 13.027344 1.753906 C 13.578125 1.585938 14.136719 1.445312 14.703125 1.332031 C 15.269531 1.21875 15.839844 1.136719 16.414062 1.078125 C 16.988281 1.023438 17.566406 0.992188 18.144531 0.992188 C 18.71875 0.992188 19.296875 1.023438 19.871094 1.078125 C 20.445312 1.136719 21.015625 1.21875 21.582031 1.332031 C 22.148438 1.445312 22.707031 1.585938 23.257812 1.753906 C 23.8125 1.921875 24.355469 2.113281 24.886719 2.335938 C 25.421875 2.554688 25.941406 2.800781 26.453125 3.074219 C 26.960938 3.347656 27.457031 3.644531 27.933594 3.964844 C 28.414062 4.285156 28.878906 4.628906 29.324219 4.996094 C 29.769531 5.359375 30.199219 5.746094 30.605469 6.15625 C 31.015625 6.5625 31.402344 6.992188 31.765625 7.4375 C 32.132812 7.882812 32.476562 8.347656 32.796875 8.828125 C 33.117188 9.308594 33.414062 9.800781 33.6875 10.308594 C 33.960938 10.820312 34.207031 11.339844 34.425781 11.875 C 34.648438 12.40625 34.839844 12.949219 35.007812 13.503906 C 35.175781 14.054688 35.316406 14.613281 35.429688 15.179688 C 35.542969 15.746094 35.625 16.316406 35.683594 16.890625 C 35.738281 17.464844 35.769531 18.042969 35.769531 18.617188 Z M 35.769531 18.617188 " fill-opacity="1" fill-rule="nonzero"/></g></g></g></g><g mask="url(#ed2764fcd5)"><g transform="matrix(1, 0, 0, 1, 501, 261)"><g clip-path="url(#2a5a2a8233)"><g clip-path="url(#31d1859a81)"><path fill="#5271ff" d="M 35.722656 18.113281 C 35.722656 18.691406 35.695312 19.265625 35.640625 19.839844 C 35.582031 20.414062 35.5 20.984375 35.386719 21.550781 C 35.273438 22.117188 35.132812 22.675781 34.964844 23.230469 C 34.796875 23.78125 34.601562 24.324219 34.382812 24.859375 C 34.160156 25.390625 33.914062 25.914062 33.644531 26.421875 C 33.371094 26.929688 33.074219 27.425781 32.753906 27.90625 C 32.433594 28.386719 32.089844 28.847656 31.722656 29.292969 C 31.355469 29.742188 30.96875 30.167969 30.5625 30.578125 C 30.152344 30.984375 29.726562 31.371094 29.28125 31.738281 C 28.835938 32.105469 28.371094 32.449219 27.890625 32.769531 C 27.410156 33.089844 26.917969 33.386719 26.40625 33.65625 C 25.898438 33.929688 25.378906 34.175781 24.84375 34.398438 C 24.3125 34.617188 23.769531 34.8125 23.214844 34.980469 C 22.664062 35.148438 22.105469 35.289062 21.539062 35.398438 C 20.972656 35.511719 20.402344 35.597656 19.828125 35.652344 C 19.253906 35.710938 18.675781 35.738281 18.097656 35.738281 C 17.523438 35.738281 16.945312 35.710938 16.371094 35.652344 C 15.796875 35.597656 15.226562 35.511719 14.660156 35.398438 C 14.09375 35.289062 13.535156 35.148438 12.984375 34.980469 C 12.429688 34.8125 11.886719 34.617188 11.355469 34.398438 C 10.820312 34.175781 10.300781 33.929688 9.789062 33.65625 C 9.28125 33.386719 8.789062 33.089844 8.308594 32.769531 C 7.828125 32.449219 7.363281 32.105469 6.917969 31.738281 C 6.472656 31.371094 6.042969 30.984375 5.636719 30.578125 C 5.226562 30.167969 4.839844 29.742188 4.476562 29.292969 C 4.109375 28.847656 3.765625 28.386719 3.445312 27.90625 C 3.125 27.425781 2.828125 26.929688 2.554688 26.421875 C 2.285156 25.914062 2.035156 25.390625 1.816406 24.859375 C 1.59375 24.324219 1.402344 23.78125 1.234375 23.230469 C 1.066406 22.675781 0.925781 22.117188 0.8125 21.550781 C 0.699219 20.984375 0.617188 20.414062 0.558594 19.839844 C 0.503906 19.265625 0.472656 18.691406 0.472656 18.113281 C 0.472656 17.535156 0.503906 16.960938 0.558594 16.386719 C 0.617188 15.8125 0.699219 15.242188 0.8125 14.675781 C 0.925781 14.109375 1.066406 13.550781 1.234375 12.996094 C 1.402344 12.445312 1.59375 11.902344 1.816406 11.367188 C 2.035156 10.835938 2.285156 10.3125 2.554688 9.804688 C 2.828125 9.296875 3.125 8.800781 3.445312 8.320312 C 3.765625 7.839844 4.109375 7.378906 4.476562 6.933594 C 4.839844 6.484375 5.226562 6.058594 5.636719 5.652344 C 6.042969 5.242188 6.472656 4.855469 6.917969 4.488281 C 7.363281 4.125 7.828125 3.78125 8.308594 3.460938 C 8.789062 3.136719 9.28125 2.84375 9.789062 2.570312 C 10.300781 2.296875 10.820312 2.050781 11.355469 1.832031 C 11.886719 1.609375 12.429688 1.414062 12.984375 1.246094 C 13.535156 1.078125 14.09375 0.941406 14.660156 0.828125 C 15.226562 0.714844 15.796875 0.628906 16.371094 0.574219 C 16.945312 0.515625 17.523438 0.488281 18.097656 0.488281 C 18.675781 0.488281 19.253906 0.515625 19.828125 0.574219 C 20.402344 0.628906 20.972656 0.714844 21.539062 0.828125 C 22.105469 0.941406 22.664062 1.078125 23.214844 1.246094 C 23.769531 1.414062 24.3125 1.609375 24.84375 1.832031 C 25.378906 2.050781 25.898438 2.296875 26.40625 2.570312 C 26.917969 2.84375 27.410156 3.136719 27.890625 3.460938 C 28.371094 3.78125 28.835938 4.125 29.28125 4.488281 C 29.726562 4.855469 30.152344 5.242188 30.5625 5.652344 C 30.96875 6.058594 31.355469 6.484375 31.722656 6.933594 C 32.089844 7.378906 32.433594 7.839844 32.753906 8.320312 C 33.074219 8.800781 33.371094 9.296875 33.644531 9.804688 C 33.914062 10.3125 34.160156 10.835938 34.382812 11.367188 C 34.601562 11.902344 34.796875 12.445312 34.964844 12.996094 C 35.132812 13.550781 35.273438 14.109375 35.386719 14.675781 C 35.5 15.242188 35.582031 15.8125 35.640625 16.386719 C 35.695312 16.960938 35.722656 17.535156 35.722656 18.113281 Z M 35.722656 18.113281 " fill-opacity="1" fill-rule="nonzero"/></g></g></g></g><g clip-path="url(#00e5e52914)"><path fill="#000000" d="M 271.949219 554.554688 C 250.101562 554.554688 228.882812 550.289062 208.890625 541.832031 C 189.605469 533.65625 172.261719 522 157.40625 507.101562 C 142.507812 492.207031 130.851562 474.898438 122.671875 455.617188 C 114.21875 435.625 109.949219 414.40625 109.949219 392.554688 C 109.949219 370.707031 114.21875 349.488281 122.671875 329.496094 C 130.851562 310.214844 142.507812 292.867188 157.40625 278.011719 C 172.300781 263.113281 189.605469 251.457031 208.890625 243.28125 C 228.882812 234.824219 250.101562 230.554688 271.949219 230.554688 C 293.800781 230.554688 315.019531 234.824219 335.011719 243.28125 C 354.292969 251.457031 371.640625 263.113281 386.496094 278.011719 C 401.390625 292.90625 413.046875 310.214844 421.226562 329.496094 C 429.683594 349.488281 433.949219 370.707031 433.949219 392.554688 C 433.949219 414.40625 429.683594 435.625 421.226562 455.617188 C 413.046875 474.898438 401.390625 492.246094 386.496094 507.101562 C 371.601562 521.957031 354.292969 533.65625 335.011719 541.832031 C 315.019531 550.289062 293.800781 554.554688 271.949219 554.554688 Z M 271.949219 238.457031 C 251.128906 238.457031 230.976562 242.527344 211.972656 250.550781 C 193.636719 258.292969 177.160156 269.4375 162.976562 283.582031 C 148.832031 297.726562 137.726562 314.203125 129.945312 332.578125 C 121.921875 351.582031 117.851562 371.734375 117.851562 392.554688 C 117.851562 413.378906 121.921875 433.53125 129.945312 452.535156 C 137.6875 470.871094 148.832031 487.347656 162.976562 501.53125 C 177.121094 515.675781 193.597656 526.78125 211.972656 534.5625 C 230.976562 542.585938 251.128906 546.652344 271.949219 546.652344 C 292.773438 546.652344 312.925781 542.585938 331.929688 534.5625 C 350.261719 526.820312 366.738281 515.675781 380.925781 501.53125 C 395.109375 487.386719 406.171875 470.910156 413.957031 452.535156 C 421.976562 433.53125 426.046875 413.378906 426.046875 392.554688 C 426.046875 371.734375 421.976562 351.582031 413.957031 332.578125 C 406.210938 314.242188 395.070312 297.765625 380.925781 283.582031 C 366.78125 269.4375 350.304688 258.332031 331.929688 250.550781 C 312.925781 242.527344 292.773438 238.457031 271.949219 238.457031 Z M 271.949219 238.457031 " fill-opacity="1" fill-rule="nonzero"/></g><path fill="#000000" d="M 271.949219 520.890625 C 237.652344 520.890625 205.453125 507.535156 181.191406 483.316406 C 156.96875 459.054688 143.613281 426.851562 143.613281 392.554688 C 143.613281 358.261719 156.96875 326.058594 181.191406 301.796875 C 205.453125 277.535156 237.652344 264.222656 271.949219 264.222656 C 306.246094 264.222656 338.449219 277.574219 362.710938 301.796875 C 386.96875 326.058594 400.285156 358.261719 400.285156 392.554688 C 400.285156 426.851562 386.929688 459.054688 362.710938 483.316406 C 338.449219 507.535156 306.246094 520.890625 271.949219 520.890625 Z M 271.949219 272.125 C 239.789062 272.125 209.519531 284.648438 186.761719 307.40625 C 164.042969 330.128906 151.515625 360.394531 151.515625 392.554688 C 151.515625 424.71875 164.042969 454.984375 186.800781 477.746094 C 209.5625 500.503906 239.789062 513.027344 271.988281 513.027344 C 304.152344 513.027344 334.417969 500.503906 357.179688 477.746094 C 379.9375 454.984375 392.460938 424.757812 392.460938 392.554688 C 392.460938 360.394531 379.9375 330.128906 357.179688 307.367188 C 334.378906 284.648438 304.113281 272.125 271.949219 272.125 Z M 271.949219 272.125 " fill-opacity="1" fill-rule="nonzero"/><path fill="#000000" d="M 240.972656 486.359375 C 234.492188 486.359375 229.199219 481.0625 229.199219 474.582031 L 229.199219 376.039062 C 225.011719 374.933594 221.175781 372.601562 218.175781 369.324219 C 214.339844 365.09375 212.207031 359.644531 212.207031 353.992188 L 212.207031 351.34375 C 212.207031 351.1875 212.207031 351.070312 212.207031 350.949219 C 212.207031 350.753906 212.207031 350.554688 212.207031 350.4375 L 212.207031 307.089844 C 212.207031 302.46875 215.960938 298.753906 220.546875 298.753906 L 221.335938 298.753906 C 225.957031 298.753906 229.671875 302.507812 229.671875 307.089844 L 229.671875 340.796875 L 232.242188 340.796875 L 232.242188 307.488281 C 232.242188 302.667969 236.152344 298.714844 241.011719 298.714844 C 245.832031 298.714844 249.785156 302.625 249.785156 307.488281 L 249.785156 340.796875 L 252.351562 340.796875 L 252.351562 307.089844 C 252.351562 302.46875 256.105469 298.753906 260.691406 298.753906 L 261.480469 298.753906 C 266.101562 298.753906 269.816406 302.507812 269.816406 307.089844 L 269.894531 350.398438 C 269.894531 350.554688 269.894531 350.671875 269.894531 350.792969 C 269.894531 350.988281 269.894531 351.1875 269.894531 351.304688 L 269.894531 353.953125 C 269.894531 364.464844 262.585938 373.550781 252.667969 376.078125 L 252.667969 474.582031 C 252.746094 481.0625 247.453125 486.359375 240.972656 486.359375 Z M 220.148438 351.542969 L 220.148438 353.992188 C 220.148438 361.539062 226.039062 368.058594 233.585938 368.808594 C 235.597656 369.007812 237.140625 370.707031 237.140625 372.722656 L 237.140625 474.582031 C 237.140625 476.71875 238.878906 478.457031 241.011719 478.457031 C 243.144531 478.457031 244.882812 476.71875 244.882812 474.582031 L 244.882812 372.761719 C 244.882812 370.707031 246.464844 369.007812 248.480469 368.808594 C 256.105469 368.136719 262.113281 361.617188 262.113281 353.953125 L 262.113281 351.464844 C 262.074219 351.265625 262.074219 351.070312 262.074219 350.871094 C 262.074219 350.59375 262.113281 350.398438 262.113281 350.238281 L 262.03125 307.132812 C 262.03125 306.894531 261.835938 306.65625 261.597656 306.65625 L 260.808594 306.65625 C 260.570312 306.65625 260.375 306.855469 260.375 307.089844 L 260.375 344.746094 C 260.375 346.917969 258.59375 348.699219 256.421875 348.699219 L 245.871094 348.699219 C 243.699219 348.699219 241.921875 346.917969 241.921875 344.746094 L 241.921875 307.488281 C 241.921875 307.011719 241.527344 306.617188 241.050781 306.617188 C 240.578125 306.617188 240.183594 307.011719 240.183594 307.488281 L 240.183594 344.746094 C 240.183594 346.917969 238.40625 348.699219 236.230469 348.699219 L 225.761719 348.699219 C 223.585938 348.699219 221.808594 346.917969 221.808594 344.746094 L 221.808594 307.089844 C 221.808594 306.855469 221.613281 306.65625 221.375 306.65625 L 220.585938 306.65625 C 220.347656 306.65625 220.148438 306.855469 220.148438 307.089844 L 220.148438 350.277344 C 220.191406 350.476562 220.191406 350.671875 220.191406 350.871094 C 220.191406 351.148438 220.148438 351.386719 220.148438 351.542969 Z M 262.152344 351.859375 Z M 220.070312 349.921875 Z M 220.070312 349.921875 " fill-opacity="1" fill-rule="nonzero"/><path fill="#000000" d="M 303.402344 486.359375 C 296.921875 486.359375 291.628906 481.0625 291.628906 474.582031 L 291.628906 381.730469 C 281.15625 374.972656 274.28125 359.40625 274.28125 342.058594 C 274.28125 330.800781 277.125 320.171875 282.261719 312.109375 C 287.753906 303.496094 295.222656 298.753906 303.363281 298.753906 C 311.503906 298.753906 318.96875 303.496094 324.460938 312.109375 C 329.597656 320.171875 332.445312 330.800781 332.445312 342.058594 C 332.445312 359.367188 325.609375 374.894531 315.214844 381.691406 L 315.214844 474.625 C 315.175781 481.0625 309.921875 486.359375 303.402344 486.359375 Z M 303.363281 306.65625 C 291.902344 306.65625 282.222656 322.855469 282.222656 342.058594 C 282.222656 357.46875 288.464844 371.417969 297.394531 375.960938 C 298.738281 376.632812 299.570312 377.976562 299.570312 379.476562 L 299.570312 474.625 C 299.570312 476.757812 301.308594 478.496094 303.441406 478.496094 C 305.574219 478.496094 307.3125 476.757812 307.3125 474.625 L 307.3125 379.398438 C 307.3125 377.9375 308.144531 376.554688 309.449219 375.882812 C 318.335938 371.300781 324.542969 357.351562 324.542969 342.019531 C 324.5 322.855469 314.820312 306.65625 303.363281 306.65625 Z M 303.363281 306.65625 " fill-opacity="1" fill-rule="nonzero"/><path fill="#000000" d="M 307.511719 312.859375 C 306.839844 312.386719 306.011719 312.1875 305.179688 312.347656 C 304.351562 312.503906 303.601562 312.980469 303.125 313.652344 C 302.652344 314.324219 302.453125 315.152344 302.613281 315.980469 C 302.769531 316.8125 303.242188 317.5625 303.957031 318.035156 C 308.066406 320.84375 313.003906 327.597656 313.160156 343.957031 C 313.160156 344.785156 313.476562 345.578125 314.070312 346.167969 C 314.664062 346.761719 315.414062 347.078125 316.28125 347.078125 C 316.324219 347.078125 316.324219 347.078125 316.363281 347.078125 L 316.480469 347.078125 C 318.140625 347 319.445312 345.65625 319.523438 343.917969 C 319.324219 328.824219 315.175781 318.074219 307.511719 312.859375 Z M 307.511719 312.859375 " fill-opacity="1" fill-rule="nonzero"/><path fill="#000000" d="M 319.640625 352.609375 C 319.640625 353.003906 319.566406 353.378906 319.417969 353.742188 C 319.265625 354.105469 319.050781 354.425781 318.773438 354.707031 C 318.496094 354.984375 318.175781 355.195312 317.8125 355.347656 C 317.449219 355.496094 317.070312 355.574219 316.679688 355.574219 C 316.285156 355.574219 315.90625 355.496094 315.542969 355.347656 C 315.179688 355.195312 314.859375 354.984375 314.582031 354.707031 C 314.304688 354.425781 314.089844 354.105469 313.941406 353.742188 C 313.789062 353.378906 313.714844 353.003906 313.714844 352.609375 C 313.714844 352.214844 313.789062 351.839844 313.941406 351.476562 C 314.089844 351.113281 314.304688 350.792969 314.582031 350.515625 C 314.859375 350.234375 315.179688 350.023438 315.542969 349.871094 C 315.90625 349.722656 316.285156 349.644531 316.679688 349.644531 C 317.070312 349.644531 317.449219 349.722656 317.8125 349.871094 C 318.175781 350.023438 318.496094 350.234375 318.773438 350.515625 C 319.050781 350.792969 319.265625 351.113281 319.417969 351.476562 C 319.566406 351.839844 319.640625 352.214844 319.640625 352.609375 Z M 319.640625 352.609375 " fill-opacity="1" fill-rule="nonzero"/><path fill="#000000" d="M 316.679688 356.363281 C 315.730469 356.363281 314.859375 356.007812 314.148438 355.375 C 313.398438 354.703125 312.964844 353.753906 312.925781 352.769531 C 312.886719 351.78125 313.242188 350.792969 313.914062 350.042969 C 314.585938 349.289062 315.53125 348.855469 316.519531 348.816406 C 317.507812 348.777344 318.496094 349.132812 319.246094 349.804688 C 319.996094 350.476562 320.433594 351.425781 320.472656 352.410156 C 320.511719 353.398438 320.15625 354.386719 319.484375 355.136719 C 318.8125 355.890625 317.863281 356.324219 316.875 356.363281 C 316.796875 356.363281 316.71875 356.363281 316.679688 356.363281 Z M 316.679688 350.398438 C 316.640625 350.398438 316.597656 350.398438 316.558594 350.398438 C 315.96875 350.4375 315.453125 350.671875 315.058594 351.109375 C 314.664062 351.542969 314.464844 352.097656 314.503906 352.6875 C 314.542969 353.28125 314.78125 353.796875 315.214844 354.191406 C 315.652344 354.585938 316.203125 354.78125 316.796875 354.742188 C 317.390625 354.703125 317.902344 354.464844 318.296875 354.03125 C 318.691406 353.597656 318.890625 353.042969 318.851562 352.453125 C 318.8125 351.859375 318.574219 351.34375 318.140625 350.949219 C 317.746094 350.632812 317.230469 350.398438 316.679688 350.398438 Z M 316.679688 350.398438 " fill-opacity="1" fill-rule="nonzero"/><g clip-path="url(#b4180dbf80)"><path fill="#000000" d="M 446.328125 408.644531 L 446.328125 397.371094 C 446.328125 392.449219 442.527344 388.40625 437.714844 388.011719 L 436.9375 382.34375 C 435.941406 375.089844 429.671875 369.613281 422.359375 369.613281 L 347.554688 369.613281 C 340.238281 369.613281 333.972656 375.089844 332.976562 382.34375 L 332.199219 388.011719 C 327.382812 388.40625 323.585938 392.449219 323.585938 397.371094 L 323.585938 408.644531 C 323.585938 412.863281 326.371094 416.441406 330.199219 417.625 L 332.226562 444.359375 L 339.417969 444.359375 L 337.425781 418.042969 L 432.488281 418.042969 L 430.492188 444.359375 L 437.6875 444.359375 L 439.710938 417.625 C 443.539062 416.441406 446.328125 412.863281 446.328125 408.644531 Z M 340.082031 383.324219 C 340.59375 379.605469 343.804688 376.796875 347.554688 376.796875 L 422.359375 376.796875 C 426.105469 376.796875 429.320312 379.601562 429.828125 383.324219 L 430.46875 387.976562 L 339.445312 387.976562 Z M 439.15625 408.644531 C 439.15625 409.84375 438.144531 410.855469 436.949219 410.855469 L 332.964844 410.855469 C 331.769531 410.855469 330.757812 409.84375 330.757812 408.644531 L 330.757812 397.371094 C 330.757812 396.171875 331.769531 395.160156 332.964844 395.160156 L 436.949219 395.160156 C 438.144531 395.160156 439.15625 396.171875 439.15625 397.371094 Z M 439.15625 408.644531 " fill-opacity="1" fill-rule="nonzero"/></g><g clip-path="url(#ced90c5aad)"><path fill="#000000" d="M 422.976562 543.492188 C 422.800781 545.839844 420.820312 547.679688 418.46875 547.679688 L 351.445312 547.679688 C 349.09375 547.679688 347.113281 545.839844 346.933594 543.492188 L 345.195312 520.566406 L 338.003906 520.566406 L 339.78125 544.035156 C 340.242188 550.109375 345.367188 554.863281 351.445312 554.863281 L 418.46875 554.863281 C 424.546875 554.863281 429.671875 550.109375 430.132812 544.035156 L 431.910156 520.566406 L 424.714844 520.566406 Z M 422.976562 543.492188 " fill-opacity="1" fill-rule="nonzero"/></g><path fill="#000000" d="M 436.976562 450.53125 L 332.9375 450.53125 C 331.144531 450.53125 329.726562 452.0625 329.863281 453.851562 L 334.234375 511.539062 C 334.359375 513.148438 335.699219 514.390625 337.308594 514.390625 L 432.601562 514.390625 C 434.214844 514.390625 435.554688 513.148438 435.675781 511.539062 L 440.050781 453.851562 C 440.1875 452.0625 438.769531 450.53125 436.976562 450.53125 Z M 436.976562 450.53125 " fill-opacity="1" fill-rule="nonzero"/><g fill="#000000" fill-opacity="1"><g transform="translate(496.020629, 450.211246)"><g><path d="M 4.652344 0 L 31.023438 0 L 44.269531 -36.632812 L 113.953125 -36.632812 L 127.078125 0 L 153.09375 0 L 88.179688 -168.484375 L 69.804688 -168.484375 Z M 52.265625 -57.992188 L 79.113281 -132.925781 L 105.960938 -57.992188 Z M 52.265625 -57.992188 "/></g></g><g transform="translate(653.886081, 450.211246)"><g><path d="M 18.851562 52.265625 L 42.121094 52.265625 L 42.121094 -14.320312 C 50.117188 -3.460938 62.527344 2.386719 77.917969 2.386719 C 109.539062 2.386719 127.320312 -25.773438 127.320312 -59.660156 C 127.320312 -93.429688 109.539062 -121.710938 77.917969 -121.710938 C 62.765625 -121.710938 50.472656 -116.101562 42.121094 -104.886719 L 42.121094 -119.203125 L 18.851562 -119.203125 Z M 72.070312 -18.496094 C 50.117188 -18.496094 40.808594 -37.230469 40.808594 -59.542969 C 40.808594 -81.976562 50.117188 -101.066406 72.070312 -101.066406 C 93.789062 -101.066406 103.691406 -81.976562 103.691406 -59.542969 C 103.691406 -37.230469 93.789062 -18.496094 72.070312 -18.496094 Z M 72.070312 -18.496094 "/></g></g><g transform="translate(789.557298, 450.211246)"><g><path d="M 18.851562 0 L 40.6875 0 L 40.6875 -89.375 L 76.726562 0 L 94.027344 0 L 129.945312 -89.613281 L 129.945312 0 L 151.78125 0 L 151.78125 -119.324219 L 121.351562 -119.324219 L 85.4375 -27.921875 L 49.042969 -119.203125 L 18.851562 -119.203125 Z M 18.851562 0 "/></g></g></g><g fill="#000000" fill-opacity="1"><g transform="translate(960.190402, 450.211246)"><g><path d="M 18.851562 0 L 44.628906 0 L 97.367188 -86.628906 L 98.5625 -86.628906 C 97.84375 -81.738281 97.367188 -76.964844 97.367188 -72.191406 L 97.367188 0 L 120.636719 0 L 120.636719 -119.203125 L 94.980469 -119.203125 L 42.121094 -32.695312 L 40.929688 -32.695312 C 41.523438 -37.46875 42.121094 -42.242188 42.121094 -47.011719 L 42.121094 -119.203125 L 18.851562 -119.203125 Z M 18.851562 0 "/></g></g></g><g fill="#000000" fill-opacity="1"><g transform="translate(1099.560657, 450.211246)"><g><path d="M 4.652344 0 L 31.023438 0 L 44.269531 -36.632812 L 113.953125 -36.632812 L 127.078125 0 L 153.09375 0 L 88.179688 -168.484375 L 69.804688 -168.484375 Z M 52.265625 -57.992188 L 79.113281 -132.925781 L 105.960938 -57.992188 Z M 52.265625 -57.992188 "/></g></g></g><g fill="#000000" fill-opacity="1"><g transform="translate(1257.426109, 450.211246)"><g><path d="M 23.269531 2.503906 C 40.210938 2.503906 51.90625 -10.738281 51.90625 -65.269531 L 51.90625 -101.542969 L 89.375 -101.542969 L 89.375 0 L 112.761719 0 L 112.761719 -119.203125 L 28.757812 -119.203125 L 28.757812 -73.503906 C 28.757812 -31.144531 25.175781 -15.988281 15.75 -15.988281 C 12.886719 -15.988281 9.425781 -17.777344 6.683594 -18.972656 L 0 -3.339844 C 5.488281 -0.597656 14.796875 2.503906 23.269531 2.503906 Z M 23.269531 2.503906 "/></g></g></g></svg>